<?xml version="1.0" encoding="UTF-8" standalone="no"?>
<svg
   xmlns:dc="http://purl.org/dc/elements/1.1/"
   xmlns:cc="http://creativecommons.org/ns#"
   xmlns:rdf="http://www.w3.org/1999/02/22-rdf-syntax-ns#"
   xmlns:svg="http://www.w3.org/2000/svg"
   xmlns="http://www.w3.org/2000/svg"
   xmlns:sodipodi="http://sodipodi.sourceforge.net/DTD/sodipodi-0.dtd"
   xmlns:inkscape="http://www.inkscape.org/namespaces/inkscape"
   width="24"
   height="24"
   viewBox="0 0 24 24"
   version="1.1"
   id="svg3682"
   sodipodi:docname="cart-reverse.svg"
   inkscape:version="0.92.1 r15371">
  <metadata
     id="metadata3688">
    <rdf:RDF>
      <cc:Work
         rdf:about="">
        <dc:format>image/svg+xml</dc:format>
        <dc:type
           rdf:resource="http://purl.org/dc/dcmitype/StillImage" />
        <dc:title></dc:title>
      </cc:Work>
    </rdf:RDF>
  </metadata>
  <defs
     id="defs3686" />
  <sodipodi:namedview
     pagecolor="#ffffff"
     bordercolor="#666666"
     borderopacity="1"
     objecttolerance="10"
     gridtolerance="10"
     guidetolerance="10"
     inkscape:pageopacity="0"
     inkscape:pageshadow="2"
     inkscape:window-width="1920"
     inkscape:window-height="1018"
     id="namedview3684"
     showgrid="false"
     inkscape:zoom="35.083333"
     inkscape:cx="10.403354"
     inkscape:cy="12"
     inkscape:window-x="1912"
     inkscape:window-y="-8"
     inkscape:window-maximized="1"
     inkscape:current-layer="svg3682" />
  <path fill="#FFFFFF"
     d="M 14,19.5 C 14,20.329 14.672,21 15.5,21 16.328,21 17,20.329 17,19.5 17,18.672 16.328,18 15.5,18 14.672,18 14,18.672 14,19.5 Z M 10.5,18 C 11.328,18 12,18.671 12,19.5 12,20.329 11.328,21 10.5,21 9.672,21 9,20.329 9,19.5 9,18.672 9.672,18 10.5,18 Z M 21.063,13 24,6 H 7.188 l 1.977,7 z M 9.83,8 h 11.162 l -1.259,3 H 10.677 Z M 4.195,3 7.627,15 h 12.597 l -0.839,2 H 6.146 L 2.672,5 H 0.743 L 0,3 Z"
     id="path3680"
     inkscape:connector-curvature="0" />
</svg>
