<svg xmlns="http://www.w3.org/2000/svg" width="24" height="24" viewBox="0 0 24 24"><path fill="#979ba7" fill-rule="evenodd" d="M19.9 10.822L12 19.104l-7.9-8.28C2.614 9.26 2.614 6.72 4.1 5.158c.707-.742 1.644-1.152 2.636-1.152 1.527 0 2.176.56 5.265 3.918 3.13-3.498 3.865-3.918 5.265-3.918.993 0 1.928.41 2.635 1.152 1.484 1.562 1.484 4.103.002 5.664m1.438-7.05C20.253 2.628 18.805 2 17.264 2 15.63 2 14.206 2.44 12 5.022 9.764 2.41 8.34 2 6.735 2c-1.543 0-2.99.63-4.075 1.77-2.214 2.327-2.214 6.115 0 8.443L12 22l9.34-9.79c2.212-2.325 2.212-6.113 0-8.44"/></svg>